# xmcd
#
# Track frame offsets: 
#        150
#        18897
#        36882
#        59692
#        79532
#        97982
#        120122
#        134320
#        153460
#        168225
#        183857
#
# Disc length: 2667 seconds
#
# Revision: 4
# Processed by: cddbd v1.5.2PL0 Copyright (c) Steve Scherf et al.
# Submitted via: ExactAudioCopy v0.99pb4
#
DISCID=7a0a690b
DTITLE=The Eric Jerardi Band - Had Enough
DYEAR=1998
DGENRE=Blues/Rock
TTITLE0=Had Enough
TTITLE1=Fate
TTITLE2=Tomorrow
TTITLE3=Tortured Soul
TTITLE4=Sweet Thing
TTITLE5=Pain
TTITLE6=Glimpse Beyond Reality
TTITLE7=G-Thing
TTITLE8=Honest I Do
TTITLE9=Always Something
TTITLE10=Warning
EXTD=
EXTT0=
EXTT1=
EXTT2=
EXTT3=
EXTT4=
EXTT5=
EXTT6=
EXTT7=
EXTT8=
EXTT9=
EXTT10=
PLAYORDER=
